<svg xmlns="http://www.w3.org/2000/svg" xmlns:xlink="http://www.w3.org/1999/xlink" xmlns:fi="http://pattern.flaticon.com/" x="0" y="0" width="700" height="350" viewBox="0 0 700 350"><rect x="0px" y="0px" width="100%" height="100%" opacity="1" fill="#ffffff"/><defs><g transform="matrix(0.3416615426540375 0 0 0.3416615426540375 100.38082644715905 27.380826447159052)" id="L1_20"><path d="M83.592,501.551h311.38v-90.906H83.592c-1.045,0-3.135,0-4.18,1.045  c-1.045,0-3.135,1.045-3.135,1.045l-3.135,2.09l-42.841,25.078L1.045,456.62l29.257,16.718l42.841,25.078l3.135,2.09  c1.045,1.045,2.09,1.045,3.135,1.045C80.457,501.551,81.502,501.551,83.592,501.551z" fill="#ffd15c"/><g><path d="M73.143,437.812h321.829v-27.167H83.592c-1.045,0-3.135,0-4.18,1.045   c-1.045,0-3.135,1.045-3.135,1.045l-3.135,2.09V437.812z" fill="#84dbff"/><path d="M83.592,501.551h311.38v-27.167H73.143v22.988l3.135,2.09c1.045,1.045,2.09,1.045,3.135,1.045   C80.457,501.551,81.502,501.551,83.592,501.551z" fill="#84dbff"/></g><path d="M29.257,473.339 29.257,438.857 0,456.62z" fill="#334a5e"/><path d="M480.653,410.645h-58.514v90.906h58.514c11.494,0,20.898-9.404,20.898-20.898v-49.11  C501.551,420.049,492.147,410.645,480.653,410.645z" fill="#ff7058"/><rect x="73px" y="437px" width="321px" height="36px" fill="#54c0eb"/><g><rect x="394px" y="410px" width="28px" height="90px" fill="#f2f2f2"/><path d="M480.653,400.196H20.898C9.404,400.196,0,390.792,0,379.298V79.412h501.551v299.886   C501.551,390.792,492.147,400.196,480.653,400.196z" fill="#f2f2f2"/></g><rect x="26px" y="104px" width="449px" height="268px" fill="#ffffff"/><rect x="0px" y="0px" width="501px" height="79px" fill="#acb3ba"/><g><circle cx="123" cy="39" r="13" fill="#f2f2f2"/><circle cx="78" cy="39" r="13" fill="#f2f2f2"/></g><g><circle cx="34" cy="39" r="13" fill="#ffd15c"/><path d="M467.069,26.122h-202.71c-7.314,0-13.584,6.269-13.584,13.584s6.269,13.584,13.584,13.584h203.755   c7.314,0,13.584-6.269,13.584-13.584C480.653,32.392,474.384,26.122,467.069,26.122z" fill="#ffd15c"/></g><g><rect x="202px" y="126px" width="251px" height="24px" fill="#cdd6e0"/><rect x="202px" y="178px" width="251px" height="24px" fill="#cdd6e0"/><rect x="202px" y="229px" width="251px" height="24px" fill="#cdd6e0"/><rect x="47px" y="282px" width="407px" height="24px" fill="#cdd6e0"/><rect x="47px" y="334px" width="407px" height="24px" fill="#cdd6e0"/></g><path d="M117.029,126.433H90.906L47.02,253.91h28.212l12.539-36.571h32.392l12.539,36.571h29.257  L117.029,126.433z M95.086,194.351l8.359-26.122v-1.045v1.045l8.359,25.078H95.086V194.351z" fill="#40596b"/></g><g transform="matrix(0.12208675294578994 0.15316338480872285 -0.15316338480872285 0.12208675294578994 246.82863396181827 32.692830934432024)" id="L1_21"><path d="M41.493,281.6l45.686-79.951c4.726-8.271,15.36-11.028,23.631-6.302l337.132,196.529  c8.271,4.726,11.028,15.36,6.302,23.631l-45.686,79.951c-4.726,8.271-15.36,11.028-23.631,6.302L47.794,305.231  C39.523,300.505,36.767,289.871,41.493,281.6z" fill="#e2574c"/><path d="M87.573,203.225l-0.788-0.788l-9.058,16.148l258.757,230.794  C336.483,449.378,87.573,203.225,87.573,203.225z" fill="#ac3327"/><path d="M408.557,495.458l45.686-79.951c4.726-8.271,1.969-18.905-6.302-23.631L341.21,329.649  l-66.56,107.914l110.277,64.197C393.197,506.486,403.831,503.729,408.557,495.458z" fill="#d6d6d6"/><path d="M293.554,406.843l-1.969,2.757l44.505,39.778L293.554,406.843z" fill="#cacaca"/><path d="M87.573,179.2l64.591-64.197c6.695-6.695,17.723-6.695,24.418,0l274.905,272.148  c6.695,6.695,6.695,17.329,0,24.025l-64.591,64.197c-6.695,6.695-17.723,6.695-24.418,0L87.573,203.225  C80.877,196.529,80.877,185.895,87.573,179.2z" fill="#e2574c"/><path d="M147.831,119.335l-14.966,14.572l173.292,259.938C306.157,393.846,147.831,119.335,147.831,119.335z" fill="#cb4e44"/><path d="M451.486,411.175c6.695-6.695,6.695-17.329,0-24.025l-93.342-92.16l-89.797,87.04l94.129,93.342  c6.695,6.695,17.723,6.695,24.418,0C386.896,475.372,451.486,411.175,451.486,411.175z" fill="#e0e0e0"/><path d="M154.133,95.705l79.951-46.08c8.271-4.726,18.905-1.969,23.631,6.302L453.85,396.209  c4.726,8.271,1.969,18.905-6.302,23.631l-79.951,46.08c-8.271,4.726-18.905,1.969-23.631-6.302L147.831,119.335  C143.105,111.065,145.862,100.431,154.133,95.705z" fill="#d07c40"/><path d="M288.04,362.732l-1.575,1.575l19.692,29.538L288.04,362.732z" fill="#d1d1d1"/><path d="M367.991,466.314l79.951-46.08c8.271-4.726,11.028-15.36,6.302-23.631l-68.529-118.942  l-108.308,66.954l66.56,115.397C349.087,468.283,359.72,471.04,367.991,466.314z" fill="#ebebeb"/><path d="M240.779,56.714c-0.788-3.151-0.788-6.302,0-9.452c-2.363,0.394-4.332,1.182-6.695,2.363  l-16.148,9.452L329,382.031L240.779,56.714z M367.203,439.532h0.788v-0.394L367.203,439.532z" fill="#bb6f39"/><path d="M367.203,439.532h0.788v-0.394L367.203,439.532z M312.853,322.56l-3.545,2.363L329,382.031  L312.853,322.56z" fill="#dbdbdb"/><path d="M252.594,35.84l89.009-23.631c9.058-2.363,18.511,2.757,21.268,11.815L464.09,395.815  c2.363,9.058-3.151,18.511-12.209,20.874l-89.009,23.631c-9.058,2.363-18.511-2.757-21.268-11.815L240.779,56.714  C238.022,47.655,243.536,38.203,252.594,35.84z" fill="#f4b459"/><path d="M362.871,0h81.526c11.422,0,20.48,9.058,20.48,20.48v384.394c0,11.422-9.058,20.48-20.48,20.48  h-81.526c-11.422,0-20.48-9.058-20.48-20.48V20.48C342.391,9.058,351.45,0,362.871,0z" fill="#efc75e"/><path d="M308.52,306.806l33.083,121.698c2.363,9.058,11.815,14.572,21.268,11.815l89.009-23.631  c9.059-2.363,14.572-11.815,12.209-20.874l-33.083-120.123L308.52,306.806z" fill="#e6e6e6"/><path d="M342.391,20.48c0-3.151,0.788-5.908,1.969-8.271c-0.788,0-1.969,0-2.757,0.394l-20.874,5.514  l21.662,313.895V20.48z" fill="#dba250"/><path d="M342.391,275.298v129.575c0,11.422,9.058,20.48,20.48,20.48h81.526c11.422,0,20.48-9.058,20.48-20.48  V275.298H342.391z" fill="#efefef"/><path d="M342.391,298.142l-2.363,0.788l2.363,33.083V298.142z" fill="#dddddd"/><path d="M362.083,295.385v19.692h66.954v-19.692H362.083z M362.083,397.785h27.569V385.97h-27.569V397.785z   M362.083,370.215h27.569V358.4h-27.569V370.215z M362.083,342.646h27.569v-11.815h-27.569V342.646z M431.007,378.092  c5.514,0,9.846,4.332,9.846,9.846s-4.332,9.846-9.846,9.846s-9.846-4.332-9.846-9.846  C421.16,382.425,425.493,378.092,431.007,378.092z" fill="#bfbfbf"/></g></defs><g fi:class="KUsePattern"><pattern id="pattern_L1_20" width="350" height="350" patternUnits="userSpaceOnUse"><use xlink:href="#L1_20" x="-350" y="-350"/><use xlink:href="#L1_20" x="0" y="-350"/><use xlink:href="#L1_20" x="350" y="-350"/><use xlink:href="#L1_20" x="-350" y="0"/><use xlink:href="#L1_20" x="0" y="0"/><use xlink:href="#L1_20" x="350" y="0"/><use xlink:href="#L1_20" x="-350" y="350"/><use xlink:href="#L1_20" x="0" y="350"/><use xlink:href="#L1_20" x="350" y="350"/></pattern><rect x="0" y="0" width="100%" height="100%" fill="url(#pattern_L1_20)"/></g><g fi:class="KUsePattern"><pattern id="pattern_L1_21" width="350" height="350" patternUnits="userSpaceOnUse"><use xlink:href="#L1_21" x="-350" y="-350"/><use xlink:href="#L1_21" x="0" y="-350"/><use xlink:href="#L1_21" x="350" y="-350"/><use xlink:href="#L1_21" x="-350" y="0"/><use xlink:href="#L1_21" x="0" y="0"/><use xlink:href="#L1_21" x="350" y="0"/><use xlink:href="#L1_21" x="-350" y="350"/><use xlink:href="#L1_21" x="0" y="350"/><use xlink:href="#L1_21" x="350" y="350"/></pattern><rect x="0" y="0" width="100%" height="100%" fill="url(#pattern_L1_21)"/></g></svg>