<svg xmlns="http://www.w3.org/2000/svg" xmlns:xlink="http://www.w3.org/1999/xlink" xmlns:fi="http://pattern.flaticon.com/" x="0" y="0" width="700" height="350" viewBox="0 0 700 350"><rect x="0px" y="0px" width="100%" height="100%" opacity="1" fill="#ffffff"/><defs><g transform="matrix(0.5088102221488953 0 0 0.5088102221488953 181.95427380502224 17.80347778982707)" id="L1_9"><path d="M147.692,304.641h104.763v49.231H147.692V304.641z" fill="#ccd0d2"/><path d="M135.483,353.871h129.182c6.695,0,12.209,5.514,12.209,12.209s-5.514,12.209-12.209,12.209H135.483  c-6.695,0-12.209-5.514-12.209-12.209S128.788,353.871,135.483,353.871z" fill="#e4e7e7"/><path d="M18.511,15.557h356.825c10.24,0,18.511,8.271,18.511,18.511v248.517c0,10.24-393.846,10.24-393.846,0  V34.068C0,23.828,8.271,15.557,18.511,15.557z" fill="#36434f"/><path d="M18.511,34.068h356.825V243.2H18.511V34.068z" fill="#465765"/><path d="M153.994,89.6h86.252c3.545,0,6.302,2.757,6.302,6.302v92.16c0,3.545-2.757,6.302-6.302,6.302  h-86.252c-3.545,0-6.302-2.757-6.302-6.302V95.508C147.692,92.357,150.449,89.6,153.994,89.6z" fill="#e4e7e7"/><path d="M172.505,163.249h49.231v12.209h-49.231V163.249z" fill="#ffffff"/><path d="M196.923,107.717c10.24,0,18.511,8.271,18.511,18.511s-8.271,18.511-18.511,18.511  s-18.511-8.271-18.511-18.511S186.683,107.717,196.923,107.717z" fill="#c2c5c5"/><path d="M147.692,304.641h104.763v18.511H147.692V304.641z" fill="#b7bbbd"/><path d="M0,286.523c0,10.24,8.271,18.511,18.511,18.511h356.825c10.24,0,18.511-8.271,18.511-18.511v-24.418  H0V286.523z" fill="#e4e7e7"/></g><g transform="matrix(0.36777055263519287 0 0 0.36777055263519287 84.31450027227402 58.29931731938541)" id="L1_11"><path d="M504.123,382.03v7.877c0,12.997-10.634,23.631-23.631,23.631H23.631  C10.634,413.537,0,402.904,0,389.907v-7.877L504.123,382.03L504.123,382.03z" fill="#e4e7e7"/><path d="M216.615,374.153h70.892c6.695,0,11.815,5.12,11.815,11.815s-5.12,11.815-11.815,11.815h-70.892  c-6.695,0-11.815-5.12-11.815-11.815C204.8,379.667,209.92,374.153,216.615,374.153z" fill="#c8cbcb"/><path d="M63.015,90.584h378.092c8.665,0,15.754,7.089,15.754,15.754V382.03h-409.6V106.337  C47.262,97.673,54.351,90.584,63.015,90.584z" fill="#36434f"/><path d="M70.892,114.214H433.23v244.185H70.892V114.214z" fill="#465765"/><path d="M157.538,326.891h189.046c12.997,0,23.631,10.634,23.631,23.631v7.877H133.908v-7.877  C133.908,337.525,144.542,326.891,157.538,326.891z" fill="#7e8a94"/><path d="M181.169,311.137c8.665,0,15.754,7.089,15.754,15.754s-7.089,15.754-15.754,15.754  s-15.754-7.089-15.754-15.754S172.505,311.137,181.169,311.137z" fill="#e4e7e7"/><path d="M228.431,311.137c8.665,0,15.754,7.089,15.754,15.754s-7.089,15.754-15.754,15.754  s-15.754-7.089-15.754-15.754S219.766,311.137,228.431,311.137z" fill="#efc75e"/><path d="M275.692,311.137c8.665,0,15.754,7.089,15.754,15.754s-7.089,15.754-15.754,15.754  s-15.754-7.089-15.754-15.754S267.028,311.137,275.692,311.137z M322.954,311.137c8.665,0,15.754,7.089,15.754,15.754  s-7.089,15.754-15.754,15.754s-15.754-7.089-15.754-15.754S314.289,311.137,322.954,311.137z" fill="#e4e7e7"/></g><g transform="matrix(1.8117916584014893 0 0 1.8117916584014893 -36.319268226623535 104.45804071426392)" id="L1_18"><path d="M43.038,58H16.962C15.326,58,14,56.674,14,55.038V2.962C14,1.326,15.326,0,16.962,0h26.077  C44.674,0,46,1.326,46,2.962v52.077C46,56.674,44.674,58,43.038,58z" fill="#e7eced"/><rect x="14px" y="6px" width="32px" height="44px" fill="#38454f"/><path d="M34,4h-5c-0.552,0-1-0.447-1-1s0.448-1,1-1h5c0.552,0,1,0.447,1,1S34.552,4,34,4z" fill="#38454f"/><path d="M26,4h-1c-0.552,0-1-0.447-1-1s0.448-1,1-1h1c0.552,0,1,0.447,1,1S26.552,4,26,4z" fill="#38454f"/><circle cx="30" cy="54" r="3" fill="#afb6bb"/><g><path d="M17,14c0.256,0,0.512-0.098,0.707-0.293l4-4c0.391-0.391,0.391-1.023,0-1.414s-1.023-0.391-1.414,0   l-4,4c-0.391,0.391-0.391,1.023,0,1.414C16.488,13.902,16.744,14,17,14z" fill="#546a79"/><path d="M17,19c0.256,0,0.512-0.098,0.707-0.293l2-2c0.391-0.391,0.391-1.023,0-1.414s-1.023-0.391-1.414,0   l-2,2c-0.391,0.391-0.391,1.023,0,1.414C16.488,18.902,16.744,19,17,19z" fill="#546a79"/><path d="M20.29,13.29C20.11,13.479,20,13.74,20,14s0.11,0.52,0.29,0.71C20.48,14.89,20.74,15,21,15   c0.26,0,0.52-0.11,0.71-0.29C21.89,14.52,22,14.26,22,14c0-0.271-0.11-0.521-0.29-0.71C21.34,12.92,20.67,12.92,20.29,13.29z" fill="#546a79"/><path d="M22.293,12.707C22.488,12.902,22.744,13,23,13s0.512-0.098,0.707-0.293l3-3   c0.391-0.391,0.391-1.023,0-1.414s-1.023-0.391-1.414,0l-3,3C21.902,11.684,21.902,12.316,22.293,12.707z" fill="#546a79"/><path d="M25.293,13.293l-9,9c-0.391,0.391-0.391,1.023,0,1.414C16.488,23.902,16.744,24,17,24   s0.512-0.098,0.707-0.293l9-9c0.391-0.391,0.391-1.023,0-1.414S25.684,12.902,25.293,13.293z" fill="#546a79"/><path d="M27.29,11.29C27.11,11.479,27,11.729,27,12c0,0.26,0.11,0.52,0.29,0.71C27.48,12.89,27.74,13,28,13   c0.26,0,0.52-0.11,0.71-0.29C28.89,12.52,29,12.26,29,12c0-0.271-0.11-0.521-0.29-0.7C28.34,10.92,27.66,10.92,27.29,11.29z" fill="#546a79"/><path d="M31.707,8.293c-0.391-0.391-1.023-0.391-1.414,0l-1,1c-0.391,0.391-0.391,1.023,0,1.414   C29.488,10.902,29.744,11,30,11s0.512-0.098,0.707-0.293l1-1C32.098,9.316,32.098,8.684,31.707,8.293z" fill="#546a79"/></g></g></defs><g fi:class="KUsePattern"><pattern id="pattern_L1_9" width="350" height="350" patternUnits="userSpaceOnUse"><use xlink:href="#L1_9" x="-350" y="-350"/><use xlink:href="#L1_9" x="0" y="-350"/><use xlink:href="#L1_9" x="350" y="-350"/><use xlink:href="#L1_9" x="-350" y="0"/><use xlink:href="#L1_9" x="0" y="0"/><use xlink:href="#L1_9" x="350" y="0"/><use xlink:href="#L1_9" x="-350" y="350"/><use xlink:href="#L1_9" x="0" y="350"/><use xlink:href="#L1_9" x="350" y="350"/></pattern><rect x="0" y="0" width="100%" height="100%" fill="url(#pattern_L1_9)"/></g><g fi:class="KUsePattern"><pattern id="pattern_L1_18" width="350" height="350" patternUnits="userSpaceOnUse"><use xlink:href="#L1_18" x="-350" y="-350"/><use xlink:href="#L1_18" x="0" y="-350"/><use xlink:href="#L1_18" x="350" y="-350"/><use xlink:href="#L1_18" x="-350" y="0"/><use xlink:href="#L1_18" x="0" y="0"/><use xlink:href="#L1_18" x="350" y="0"/><use xlink:href="#L1_18" x="-350" y="350"/><use xlink:href="#L1_18" x="0" y="350"/><use xlink:href="#L1_18" x="350" y="350"/></pattern><rect x="0" y="0" width="100%" height="100%" fill="url(#pattern_L1_18)"/></g><g fi:class="KUsePattern"><pattern id="pattern_L1_11" width="350" height="350" patternUnits="userSpaceOnUse"><use xlink:href="#L1_11" x="-350" y="-350"/><use xlink:href="#L1_11" x="0" y="-350"/><use xlink:href="#L1_11" x="350" y="-350"/><use xlink:href="#L1_11" x="-350" y="0"/><use xlink:href="#L1_11" x="0" y="0"/><use xlink:href="#L1_11" x="350" y="0"/><use xlink:href="#L1_11" x="-350" y="350"/><use xlink:href="#L1_11" x="0" y="350"/><use xlink:href="#L1_11" x="350" y="350"/></pattern><rect x="0" y="0" width="100%" height="100%" fill="url(#pattern_L1_11)"/></g></svg>