<?xml version="1.0" encoding="utf-8"?>
<svg version="1.1" id="svg2" xmlns="http://www.w3.org/2000/svg" xmlns:xlink="http://www.w3.org/1999/xlink" x="0px" y="0px"
	 viewBox="1194 -604 3000 2000" xml:space="preserve">
<path class="colorize-svg" d="M3068.1-342h273.7L3176,403.3c-32.2,141.7-54.2,228.6-66.1,260.8
	c42.9,197.5,105.2,296.2,186.8,296.2c96.5,0,146.5-66.5,149.7-199.6h57.9c-3.2,124.5-26,225.1-68.3,301.8
	c-42.4,76.8-97.9,115-166.7,115c-56.8,0-99.2-23-127-69.2c-28-46.1-58-140.6-90.2-283.3c-111.6,235-294.1,352.5-547.3,352.5
	c-172.7,0-310.2-67.3-412.1-202c-101.9-134.7-152.9-327.6-152.9-578.7c0-246.8,55.8-438.9,167.4-576.3
	c111.6-137.4,245.9-206,402.5-206c110.6,0,201.3,39.2,272.1,117.5c70.9,78.3,133.6,206,188.3,383.1L3068.1-342z M2926.5,289
	c-50.5-172.8-106.8-307.7-169-404.8s-136.8-145.7-223.8-145.7c-196.3,0-294.6,229.6-294.6,689c0,435.7,93.9,653.5,281.7,653.5
	c163.2,0,284-192.1,362.3-576.3L2926.5,289L2926.5,289z"/>
</svg>
